<svg xmlns="http://www.w3.org/2000/svg" xmlns:xlink="http://www.w3.org/1999/xlink" width="1188" height="700" viewBox="0 0 1188 700"><defs><clipPath id="b"><rect width="1188" height="700"/></clipPath></defs><g id="a" clip-path="url(#b)"><rect width="1188" height="700" fill="#fff"/><g transform="translate(-177 -138)"><rect width="168" height="50" rx="20" transform="translate(692 156)" fill="#3c7ddc"/><text transform="translate(724 187)" fill="#fff" font-size="18" font-family="Halant-Semibold, Halant" font-weight="600"><tspan x="0" y="0">Welcome page</tspan></text><line y2="50" transform="translate(776.5 206.5)" fill="none" stroke="#707070" stroke-width="1"/><line x1="496" y1="2.5" transform="translate(280.5 229)" fill="none" stroke="#707070" stroke-width="1"/><line y2="47" transform="translate(280.5 229.5)" fill="none" stroke="#707070" stroke-width="1"/><rect width="168" height="50" rx="20" transform="translate(691 257)" fill="#4890fa"/><text transform="translate(731 288)" fill="#fff" font-size="18" font-family="Halant-Semibold, Halant" font-weight="600"><tspan x="0" y="0">Home Page</tspan></text><line y2="30" transform="translate(775 307)" fill="none" stroke="#707070" stroke-width="1"/><line x2="692" transform="translate(507 337)" fill="none" stroke="#707070" stroke-width="1"/><rect width="196" height="50" rx="20" transform="translate(196.5 261.5)" fill="#4890fa"/><text transform="translate(237.5 292.5)" fill="#fff" font-size="18" font-family="Halant-Semibold, Halant" font-weight="600"><tspan x="0" y="0">Signup/ Login</tspan></text><line x1="1" y2="250" transform="translate(217 311)" fill="none" stroke="#707070" stroke-width="1"/><line x2="16" transform="translate(217 356.5)" fill="none" stroke="#707070" stroke-width="1"/><line x2="16" transform="translate(217 424.5)" fill="none" stroke="#707070" stroke-width="1"/><line x2="16" transform="translate(217 492.5)" fill="none" stroke="#707070" stroke-width="1"/><line x2="16" transform="translate(216 560.5)" fill="none" stroke="#707070" stroke-width="1"/><rect width="161" height="50" rx="20" transform="translate(232.5 332.5)" fill="#7aabf4"/><rect width="161" height="50" rx="20" transform="translate(232.5 400.5)" fill="#7aabf4"/><rect width="161" height="50" rx="20" transform="translate(232.5 468.5)" fill="#7aabf4"/><rect width="161" height="50" rx="20" transform="translate(231.5 536.5)" fill="#7aabf4"/><text transform="translate(280.5 362.5)" fill="#fff" font-size="18" font-family="Halant-Semibold, Halant" font-weight="600"><tspan x="0" y="0">Sign up</tspan></text><text transform="translate(264.5 430.5)" fill="#fff" font-size="18" font-family="Halant-Semibold, Halant" font-weight="600"><tspan x="0" y="0">Email login</tspan></text><text transform="translate(264.5 498.5)" fill="#fff" font-size="18" font-family="Halant-Semibold, Halant" font-weight="600"><tspan x="0" y="0">Google login</tspan></text><text transform="translate(251.5 566.5)" fill="#fff" font-size="18" font-family="Halant-Semibold, Halant" font-weight="600"><tspan x="0" y="0">Facebook login</tspan></text><line y2="35" transform="translate(507 337)" fill="none" stroke="#707070" stroke-width="1"/><line y2="35" transform="translate(747 337)" fill="none" stroke="#707070" stroke-width="1"/><line y2="35" transform="translate(969 337)" fill="none" stroke="#707070" stroke-width="1"/><line y2="35" transform="translate(1199 337)" fill="none" stroke="#707070" stroke-width="1"/><rect width="170" height="50" rx="25" transform="translate(443 372)" fill="#4890fa"/><rect width="170" height="50" rx="25" transform="translate(683 372)" fill="#4890fa"/><g transform="translate(491 432)" fill="#fff" stroke="#3c7ddc" stroke-width="2"><rect width="150" height="50" rx="25" stroke="none"/><rect x="1" y="1" width="148" height="48" rx="24" fill="none"/></g><g transform="translate(491 564.5)" fill="#fff" stroke="#3c7ddc" stroke-width="2"><rect width="150" height="50" rx="25" stroke="none"/><rect x="1" y="1" width="148" height="48" rx="24" fill="none"/></g><g transform="translate(736 443)" fill="#fff" stroke="#3c7ddc" stroke-width="2"><rect width="150" height="50" rx="25" stroke="none"/><rect x="1" y="1" width="148" height="48" rx="24" fill="none"/></g><g transform="translate(954 441.5)" fill="#fff" stroke="#3c7ddc" stroke-width="2"><rect width="150" height="68.5" rx="30" stroke="none"/><rect x="1" y="1" width="148" height="66.5" rx="29" fill="none"/></g><g transform="translate(1181.5 436.75)" fill="#fff" stroke="#3c7ddc" stroke-width="2"><rect width="150" height="50" rx="25" stroke="none"/><rect x="1" y="1" width="148" height="48" rx="24" fill="none"/></g><g transform="translate(736 505)" fill="#fff" stroke="#3c7ddc" stroke-width="2"><rect width="150" height="50" rx="25" stroke="none"/><rect x="1" y="1" width="148" height="48" rx="24" fill="none"/></g><g transform="translate(1181.5 498.75)" fill="#fff" stroke="#3c7ddc" stroke-width="2"><rect width="150" height="50" rx="25" stroke="none"/><rect x="1" y="1" width="148" height="48" rx="24" fill="none"/></g><g transform="translate(736 567)" fill="#fff" stroke="#3c7ddc" stroke-width="2"><rect width="150" height="50" rx="25" stroke="none"/><rect x="1" y="1" width="148" height="48" rx="24" fill="none"/></g><g transform="translate(954 523.25)" fill="#fff" stroke="#3c7ddc" stroke-width="2"><rect width="150" height="85" rx="30" stroke="none"/><rect x="1" y="1" width="148" height="83" rx="29" fill="none"/></g><g transform="translate(1181.5 560.75)" fill="#fff" stroke="#3c7ddc" stroke-width="2"><rect width="150" height="50" rx="25" stroke="none"/><rect x="1" y="1" width="148" height="48" rx="24" fill="none"/></g><g transform="translate(736 629)" fill="#fff" stroke="#3c7ddc" stroke-width="2"><rect width="150" height="50" rx="25" stroke="none"/><rect x="1" y="1" width="148" height="48" rx="24" fill="none"/></g><g transform="translate(1181.5 622.75)" fill="#fff" stroke="#3c7ddc" stroke-width="2"><rect width="150" height="50" rx="25" stroke="none"/><rect x="1" y="1" width="148" height="48" rx="24" fill="none"/></g><g transform="translate(491 629.5)" fill="#fff" stroke="#3c7ddc" stroke-width="2"><rect width="150" height="50" rx="25" stroke="none"/><rect x="1" y="1" width="148" height="48" rx="24" fill="none"/></g><g transform="translate(491 694.5)" fill="#fff" stroke="#3c7ddc" stroke-width="2"><rect width="150" height="50" rx="25" stroke="none"/><rect x="1" y="1" width="148" height="48" rx="24" fill="none"/></g><g transform="translate(491 759.5)" fill="#fff" stroke="#3c7ddc" stroke-width="2"><rect width="150" height="50" rx="25" stroke="none"/><rect x="1" y="1" width="148" height="48" rx="24" fill="none"/></g><g transform="translate(497 499)" fill="#fff" stroke="#3c7ddc" stroke-width="2"><rect width="150" height="50" rx="25" stroke="none"/><rect x="1" y="1" width="148" height="48" rx="24" fill="none"/></g><rect width="170" height="50" rx="25" transform="translate(905 372)" fill="#4890fa"/><rect width="170" height="50" rx="25" transform="translate(1135 372)" fill="#4890fa"/><text transform="translate(497 403)" fill="#fff" font-size="18" font-family="Halant-Semibold, Halant" font-weight="600"><tspan x="0" y="0">Account</tspan></text><text transform="translate(731 403)" fill="#fff" font-size="18" font-family="Halant-Semibold, Halant" font-weight="600"><tspan x="0" y="0">Courses</tspan></text><text transform="translate(953 403)" fill="#fff" font-size="18" font-family="Halant-Semibold, Halant" font-weight="600"><tspan x="0" y="0">Search</tspan></text><text transform="translate(1183 403)" fill="#fff" font-size="18" font-family="Halant-Semibold, Halant" font-weight="600"><tspan x="0" y="0">Progress</tspan></text><line y2="362" transform="translate(460.5 422.5)" fill="none" stroke="#707070" stroke-width="1"/><line x2="31" transform="translate(460.5 456.5)" fill="none" stroke="#707070" stroke-width="1"/><line x2="31" transform="translate(460.5 589)" fill="none" stroke="#707070" stroke-width="1"/><line x2="31" transform="translate(705.5 467.5)" fill="none" stroke="#707070" stroke-width="1"/><line x2="31" transform="translate(923.5 466)" fill="none" stroke="#707070" stroke-width="1"/><line x2="31" transform="translate(1151 461.25)" fill="none" stroke="#707070" stroke-width="1"/><line x2="31" transform="translate(705.5 529.5)" fill="none" stroke="#707070" stroke-width="1"/><line x2="31" transform="translate(1151 523.25)" fill="none" stroke="#707070" stroke-width="1"/><line x2="31" transform="translate(705.5 591.5)" fill="none" stroke="#707070" stroke-width="1"/><line x2="31" transform="translate(923.5 547.75)" fill="none" stroke="#707070" stroke-width="1"/><line x2="31" transform="translate(1151 585.25)" fill="none" stroke="#707070" stroke-width="1"/><line x2="31" transform="translate(705.5 653.5)" fill="none" stroke="#707070" stroke-width="1"/><line x2="31" transform="translate(1151 647.25)" fill="none" stroke="#707070" stroke-width="1"/><line x2="31" transform="translate(460.5 654)" fill="none" stroke="#707070" stroke-width="1"/><line x2="31" transform="translate(460.5 719)" fill="none" stroke="#707070" stroke-width="1"/><line x2="31" transform="translate(460.5 784)" fill="none" stroke="#707070" stroke-width="1"/><text transform="translate(530 463)" fill="#707070" font-size="18" font-family="Halant-Semibold, Halant" font-weight="600"><tspan x="0" y="0">Profile</tspan></text><text transform="translate(511 595)" fill="#707070" font-size="18" font-family="Halant-Semibold, Halant" font-weight="600"><tspan x="0" y="0">Saved courses</tspan></text><text transform="translate(756 473.5)" fill="#707070" font-size="18" font-family="Halant-Semibold, Halant" font-weight="600"><tspan x="0" y="0">Course details</tspan></text><text transform="translate(974 472)" fill="#707070" font-size="16" font-family="Halant-Semibold, Halant" font-weight="600"><tspan x="0" y="0">List based on </tspan><tspan x="0" y="15">the topic</tspan><tspan x="0" y="30" xml:space="preserve"> searched</tspan></text><text transform="translate(1201.5 460.25)" fill="#707070" font-size="18" font-family="Halant-Semibold, Halant" font-weight="600"><tspan x="0" y="0">List of courses</tspan><tspan x="0" y="15" xml:space="preserve"> enrolled</tspan></text><text transform="translate(756 535.5)" fill="#707070" font-size="18" font-family="Halant-Semibold, Halant" font-weight="600"><tspan x="0" y="0">Enroll/Learn</tspan></text><text transform="translate(1201.5 529.25)" fill="#707070" font-size="18" font-family="Halant-Semibold, Halant" font-weight="600"><tspan x="0" y="0">Progress made</tspan></text><text transform="translate(759 589.5)" fill="#707070" font-size="16" font-family="Halant-Semibold, Halant" font-weight="600"><tspan x="0" y="0">Download and</tspan><tspan x="0" y="17" xml:space="preserve"> learn later</tspan></text><text transform="translate(974 551.5)" fill="#707070" font-size="16" font-family="Halant-Semibold, Halant" font-weight="600"><tspan x="0" y="0">Show other links </tspan><tspan x="0" y="17">if courses not</tspan><tspan x="0" y="34" xml:space="preserve"> available</tspan></text><text transform="translate(1204.5 583.25)" fill="#707070" font-size="16" font-family="Halant-Semibold, Halant" font-weight="600"><tspan x="0" y="0">Number of hours </tspan><tspan x="0" y="17">Spent</tspan></text><text transform="translate(771 658)" fill="#707070" font-size="18" font-family="Halant-Semibold, Halant" font-weight="600"><tspan x="0" y="0">Reviews</tspan></text><text transform="translate(1201.5 642.75)" fill="#707070" font-size="18" font-family="Halant-Semibold, Halant" font-weight="600"><tspan x="0" y="0">Recommended</tspan><tspan x="0" y="18">Schedule</tspan></text><text transform="translate(525 659)" fill="#707070" font-size="18" font-family="Halant-Semibold, Halant" font-weight="600"><tspan x="0" y="0">Downloads</tspan></text><text transform="translate(507 725)" fill="#707070" font-size="14" font-family="Halant-Semibold, Halant" font-weight="600"><tspan x="0" y="0">Completed courses</tspan></text><text transform="translate(538 790)" fill="#707070" font-size="18" font-family="Halant-Semibold, Halant" font-weight="600"><tspan x="0" y="0">Badges</tspan></text><text transform="translate(536 530)" fill="#707070" font-size="18" font-family="Halant-Semibold, Halant" font-weight="600"><tspan x="0" y="0">Add details</tspan></text><line y2="68" transform="translate(479 457)" fill="none" stroke="#707070" stroke-width="1"/><line x2="18" transform="translate(479 524)" fill="none" stroke="#707070" stroke-width="1"/><line y2="232" transform="translate(705.5 422.5)" fill="none" stroke="#707070" stroke-width="1"/><line y2="126.5" transform="translate(923.5 421)" fill="none" stroke="#707070" stroke-width="1"/><line x1="0.5" y2="226.75" transform="translate(1151 421.5)" fill="none" stroke="#707070" stroke-width="1"/></g></g></svg>