<svg xmlns="http://www.w3.org/2000/svg" xmlns:xlink="http://www.w3.org/1999/xlink" width="1400" height="532" viewBox="0 0 1400 532"><defs><clipPath id="b"><rect width="1400" height="532"/></clipPath></defs><g id="a" clip-path="url(#b)"><rect width="1400" height="532" fill="#f8efd9"/><g transform="translate(448 129)"><path d="M62.725,56.619c-19.457,0-47.043,34.761-47.043,56.7,0,9.882,6.569,15.786,17.577,15.786,11.966,0,19.868-7.1,29.465-7.1,9.68,0,17.6,7.1,29.465,7.1,11.008,0,17.577-5.9,17.577-15.786C109.767,91.38,82.181,56.619,62.725,56.619ZM26.639,53.048c-2.548-9.812-10.4-16.166-17.533-14.195S-1.746,50.375.8,60.187,11.2,76.353,18.336,74.382s10.852-11.522,8.3-21.334ZM47.4,47.164c7.581-2.3,11.374-14.141,8.473-26.436S44.471.337,36.891,2.642,25.517,16.783,28.418,29.078,39.818,49.472,47.4,47.164Zm68.944-8.308c-7.135-1.971-14.983,4.383-17.533,14.195s1.169,19.363,8.3,21.334S122.094,70,124.645,60.19,123.476,40.827,116.341,38.856ZM78.053,47.164c7.581,2.3,16.078-5.791,18.979-18.086S96.14,4.95,88.559,2.642,72.481,8.433,69.58,20.728,70.472,44.859,78.053,47.164Z" transform="translate(201 17.821)" fill="#fd840b"/><text transform="translate(1 137)" fill="#0a0000" font-size="140" font-family="HelveticaNeue-Bold, Helvetica Neue" font-weight="700"><tspan x="0" y="0">AD</tspan></text><text transform="translate(326 137)" fill="#0a0000" font-size="140" font-family="HelveticaNeue-Bold, Helvetica Neue" font-weight="700"><tspan x="0" y="0">PT</tspan></text></g></g></svg>