<svg xmlns="http://www.w3.org/2000/svg" width="357" height="120" viewBox="0 0 357 120"><path d="M44.624,40.929c-13.842,0-33.467,24.73-33.467,40.34,0,7.031,4.673,11.231,12.5,11.231,8.513,0,14.135-5.052,20.962-5.052,6.887,0,12.524,5.052,20.962,5.052,7.832,0,12.5-4.2,12.5-11.231C78.091,65.659,58.465,40.929,44.624,40.929Zm-25.672-2.54c-1.813-6.98-7.4-11.5-12.473-10.1s-7.72,8.2-5.907,15.177,7.4,11.5,12.473,10.1,7.72-8.2,5.907-15.177ZM33.719,34.2c5.393-1.64,8.091-10.06,6.028-18.807S31.638.889,26.245,2.529s-8.091,10.06-6.028,18.807S28.328,35.845,33.719,34.2Zm49.049-5.911c-5.076-1.4-10.659,3.118-12.473,10.1s.831,13.775,5.907,15.177,10.659-3.118,12.473-10.1S87.843,29.694,82.767,28.292ZM55.528,34.2c5.393,1.64,11.438-4.12,13.5-12.867S68.4,4.171,63,2.529,51.565,6.649,49.5,15.4,50.135,32.563,55.528,34.2Z" transform="translate(143.999 9.626)" fill="#fd840b"/><text transform="translate(1 98)" fill="#0a0000" font-size="100" font-family="HelveticaNeue-Bold, Helvetica Neue" font-weight="700"><tspan x="0" y="0">AD</tspan></text><text transform="translate(229 98)" fill="#0a0000" font-size="100" font-family="HelveticaNeue-Bold, Helvetica Neue" font-weight="700"><tspan x="0" y="0">PT</tspan></text></svg>